
<svg version="1.0" xmlns="http://www.w3.org/2000/svg"
 width="2rem" height="2rem" viewBox="0 0 512.000000 512.000000"
 preserveAspectRatio="xMidYMid meet">
<g transform="translate(0.000000,512.000000) scale(0.100000,-0.100000)"
fill="#000000" stroke="none">
<path d="M2465 5104 c-44 -24 -75 -55 -96 -96 -16 -32 -19 -59 -19 -181 l0
-144 -87 -18 c-284 -56 -546 -198 -758 -410 -210 -210 -340 -447 -411 -750
-13 -56 -17 -163 -24 -550 -8 -525 -14 -593 -72 -775 -73 -230 -182 -404 -375
-600 -173 -175 -188 -203 -188 -355 0 -106 1 -112 34 -173 41 -75 103 -135
179 -170 l57 -27 1860 0 1860 0 60 29 c76 38 143 105 181 181 26 54 29 70 29
160 0 93 -2 105 -33 167 -24 49 -52 84 -105 133 -205 188 -349 406 -426 647
-60 188 -63 229 -71 753 -7 437 -9 489 -29 576 -85 385 -288 695 -603 922
-152 109 -377 206 -562 243 l-86 17 0 136 c0 127 -2 141 -25 188 -16 32 -41
61 -67 79 -35 25 -52 29 -117 32 -55 2 -84 -2 -106 -14z"/>
<path d="M1787 588 c26 -89 54 -150 109 -234 97 -148 238 -256 412 -317 76
-26 104 -31 222 -35 113 -3 149 -1 222 17 251 60 467 246 557 481 16 41 32 90
36 108 l7 32 -791 0 -790 0 16 -52z"/>
</g>
</svg>
