<svg height="368pt" viewBox="0 0 368.002 368" width="368pt" xmlns="http://www.w3.org/2000/svg"><path d="m317.65625 34.34375c-3.128906-3.125-8.183594-3.125-11.3125 0l-34.34375 34.34375v-60.6875c0-4.414062-3.574219-8-8-8h-176c-2.121094 0-4.160156.839844-5.65625 2.34375l-80 80c-1.503906 1.496094-2.34375 3.539062-2.34375 5.65625v272c0 4.417969 3.585938 8 8 8h304c4.425781 0 8-3.582031 8-8 0-4.414062-3.574219-8-8-8h-40v-164.6875l93.65625-93.65625c3.128906-3.128906 3.128906-8.183594 0-11.3125zm-59.296875 143.984375c-.007813.007813-.023437.023437-.03125.03125l-109.640625 109.640625h-36.6875v-36.6875l160-160 36.6875 36.6875zm-167.046875-162.328125h4.6875v80h-80v-4.6875zm164.6875 336h-240v-240h88c4.414062 0 8-3.582031 8-8v-88h144v68.6875l-157.65625 157.65625c-1.503906 1.496094-2.34375 3.539062-2.34375 5.65625v40h-24c-4.414062 0-8 3.585938-8 8 0 4.417969 3.585938 8 8 8h128c4.425781 0 8-3.582031 8-8 0-4.414062-3.574219-8-8-8h-28.6875l84.6875-84.6875zm64-235.3125-36.6875-36.6875 28.6875-28.6875 36.6875 36.6875zm0 0"/><path d="m354.320312 354.320312c-1.449218 1.519532-2.320312 3.601563-2.320312 5.679688 0 2.082031.871094 4.160156 2.320312 5.679688 1.511719 1.441406 3.511719 2.320312 5.679688 2.320312 2.160156 0 4.160156-.878906 5.679688-2.320312.320312-.398438.640624-.796876.960937-1.277344.320313-.402344.550781-.882813.71875-1.363282.242187-.476562.402344-.957031.480469-1.4375.082031-.5625.160156-1.039062.160156-1.601562 0-2.078125-.878906-4.160156-2.320312-5.679688-2.960938-2.960937-8.398438-2.960937-11.359376 0zm0 0"/></svg>