<svg id="Layer_1" enable-background="new 0 0 511.924 511.924" height="512" viewBox="0 0 511.924 511.924" width="512" xmlns="http://www.w3.org/2000/svg"><path d="m511.057 157.901c1.383-2.631 1.001-6.014-.907-8.286l-123.368-146.937c-1.425-1.698-3.528-2.678-5.744-2.678h-249.385c-2.216 0-4.319.98-5.744 2.678l-121.753 145.015c-4.257 2.431-5.212 6.126-2.866 11.086l248.496 350.063c2.91 4.119 9.316 4.099 12.231 0l107.581-151.546c5.613-7.908-6.618-16.591-12.231-8.684l-76.601 107.906 103.828-294.581h105.29l-109.517 154.274c-5.612 7.908 6.616 16.588 12.231 8.684l117.923-166.115c.178-.293.357-.586.536-.879zm-22.742-10.963h-104.415l-65.868-131.938h59.51zm-353.166-131.938h58.627l-24.112 48.283c-4.333 8.675 9.088 15.378 13.42 6.701l27.459-54.984h90.724l65.868 131.938h-222.48l20.788-41.626c4.333-8.676-9.085-15.375-13.42-6.701l-24.134 48.327h-103.513zm-113.222 146.938h105.29l103.822 294.581zm233.975 319.999-112.78-320h225.568z"/></svg>