
<svg version="1.0" xmlns="http://www.w3.org/2000/svg"
 width="2rem" height="2rem" viewBox="0 0 512.000000 512.000000"
 preserveAspectRatio="xMidYMid meet">
<g transform="translate(0.000000,512.000000) scale(0.100000,-0.100000)"
fill="#000000" stroke="none">
<path d="M283 4460 c-61 -21 -124 -63 -172 -113 -41 -43 -55 -102 -34 -145 8
-16 248 -227 560 -493 662 -561 1327 -1131 1597 -1367 109 -96 217 -183 240
-193 60 -27 124 -24 185 8 28 16 151 116 273 223 279 245 847 731 1551 1329
312 266 552 477 560 493 21 43 7 102 -34 145 -50 51 -112 92 -176 114 -55 19
-104 19 -2277 18 -2136 0 -2223 -1 -2273 -19z"/>
<path d="M55 3848 c-11 -6 -28 -20 -37 -32 -16 -20 -18 -110 -18 -1427 0
-1285 1 -1410 17 -1455 44 -130 148 -234 277 -277 46 -16 229 -17 2266 -17
2037 0 2220 1 2266 17 129 43 233 147 277 277 16 45 17 170 17 1455 0 1317 -2
1407 -18 1427 -39 49 -100 57 -154 21 -55 -38 -1485 -1257 -1908 -1627 -202
-177 -248 -214 -289 -235 -102 -51 -221 -59 -326 -21 -85 31 -110 49 -290 207
-387 342 -1901 1633 -1963 1676 -37 25 -84 29 -117 11z"/>
</g>
</svg>
